Avril Lavigne - Best Damn Tour (Live in Toronto) 1080i AVCHD

This AVCHD was made by using the HD video and the audio from the dvd and edit them together. It can be play in any PS3 and in some blu-ray players.
Just burn the iso with imgburn.

01 Girlfriend
02 Complicated
03 My Happy Ending
04 I'm With You
05 When You're Gone
06 Innocence
07 Don't Tell Me
08 Losing Grip
09 Bad Reputation Video Montage
10 Avril On Durms (Runaway + Mickey)
11 The Best Damn Thing
12 He Wasn't
13 Girlfriend (Remix)
14 Sk8er Boi

Video 1920 x 1080i
Audio Dolby Digital 5.1
Chapters

Video Source:   
http://www.celebutopia.net/forum/showthread.php?107549-Avril-Lavigne-Live-In-Toronto-%28Palladia%29-HD-1080i

Audio source:  
http://thepiratebay.org/torrent/4398876/Avril_Lavigne-_The_Best_Damn_Tour_2008_-_Live_In_Toronto_DVD

Mediainfo:
Format                           : BDAV
Format/Info                      : Blu-ray Video
Overall bit rate                 : 11.0 Mbps
Maximum Overall bit rate         : 35.5 Mbps

Video
ID                               : 4113 (0x1011)
Menu ID                          : 1 (0x1)
Format                           : AVC
Format/Info                      : Advanced Video Codec
Format profile                   : High@L4.1
Format settings, CABAC           : Yes
Format settings, ReFrames        : 2 frames
Bit rate mode                    : Constant
Bit rate                         : 10.1 Mbps
Nominal bit rate                 : 10 000 Kbps
Width                            : 1 920 pixels
Height                           : 1 080 pixels
Display aspect ratio             : 16:9
Frame rate                       : 29.970 fps
Standard                         : NTSC
Resolution                       : 8 bits
Colorimetry                      : 4:2:0
Scan type                        : Interlaced
Scan order                       : Top Field First
Bits/(Pixel*Frame)               : 0.162
Stream size                      : 3.42 GiB (92%)
Color primaries                  : BT.709-5, BT.1361, IEC 61966-2-4, SMPTE RP177
Transfer characteristics         : BT.709-5, BT.1361
Matrix coefficients              : BT.709-5, BT.1361, IEC 61966-2-4 709, SMPTE RP177

Audio
ID                               : 4352 (0x1100)
Menu ID                          : 1 (0x1)
Format                           : AC-3
Format/Info                      : Audio Coding 3
Format_Settings_ModeExtension    : CM (complete main)
Bit rate mode                    : Constant
Bit rate                         : 448 Kbps
Channel(s)                       : 6 channels
Channel positions                : Front: L C R, Side: L R, LFE
Sampling rate                    : 48.0 KHz
Stream size                      : 156 MiB (4%)
Language                         : English /  / 

